<svg version="1" xmlns="http://www.w3.org/2000/svg" width="400" height="400" viewBox="0 0 300.000000 300.000000"><path d="M128.5 76l-5 .5-4 11c-2.2 6-4.3 11.4-4.6 12-.4.5-.9 2.2-1.2 3.6-.4 1.4-1.4 4.3-2.3 6.5-1 2.1-1.8 4.3-2 4.9-.1.5-1.3 3.9-2.7 7.5-2.4 6.1-21.7 58.1-29.4 79-1.9 5.2-3.7 10.2-4 11-.4.8-.7 1.7-.7 2-.1.3-.7 1.5-1.4 2.7-.7 1.3-1 2.3-.7 2.3.3 0 .1.9-.5 2-1.5 2.8 1 3.6 11.3 3.5 8.1-.2 10.1-.6 10.2-2.3.1-1.1 1.6-5.5 3-8.7.8-1.7 4.1-10.4 7.4-19.5 7.9-21.8 24-65.1 24.8-67 .3-.8.7-1.7.7-2 .1-.5 2.3-6.2 3.6-9.5.8-2 9.6-25.9 12.7-34.3.8-2.4 1.3-4.6 1-4.9-.8-.7-10.2-.9-16.2-.3zM41.5 125.1c-12 6-22.5 10.9-23.1 10.9-.7 0-1.4.3-1.6.7-.1.5-2.6 1.9-5.5 3.2-5.7 2.6-6 3.1-5.9 11.6l.1 6 28.8 14.2c15.8 7.8 29.4 14.3 30.3 14.5 1.1.2 2.5-2 4.9-7.7 1.9-4.4 3.1-8.3 2.7-8.7-.7-.6-30.9-14.6-40.2-18.5l-2.5-1.1 2.8-1.1c1.6-.6 5.2-2.2 8-3.5 2.9-1.3 7.5-3.4 10.2-4.6 2.8-1.2 8.7-4 13.3-6.1l8.3-3.8-1.4-3.3c-4.4-10.5-6-13.8-6.6-13.7-.3 0-10.5 5-22.6 11zM185.4 115.2c-6 1.3-14.4 6.7-17.9 11.5-3.1 4.3-4.5 5.2-4.5 3 0-1.6-4.2-10.4-6.2-13-1.3-1.8-1.6-1.8-7.8.7-3.6 1.4-6.9 2.6-7.4 2.5-1.9-.2-2.8 3.2-1.4 4.9 2.1 2.4 4.5 9.6 5.8 17.1.6 3.6 1.2 18.2 1.2 33.3l.1 26.8H168v-11.3c.1-36 .5-41 3-46.1 6.2-12.8 19.2-17.6 25.4-9.3 2 2.7 2.1 4.1 2.4 34.8l.3 31.9h21l-.1-30.8c-.2-37.7-1.2-44.4-8.2-50.9-5.3-4.9-16.8-7.2-26.4-5.1zM234.5 117.3c-.7 1.7-2.3 5.4-3.5 8.2l-2.1 4.9 2.3 1.8c1.3 1 2.8 1.8 3.4 1.8.6 0 4.6 1.7 9 3.8 4.3 2.1 12.1 5.6 17.1 7.8 5.1 2.1 9.3 4.2 9.3 4.5 0 .4-2.6 1.8-5.7 3.2-15.5 6.8-34.9 15.9-35.6 16.6-.7.7 4.6 14.6 6.2 16.4.7.7 24.3-10.2 24.9-11.6.2-.4.8-.7 1.3-.7.6 0 8.4-3.6 17.4-8l16.5-7.9v-15.6l-13.2-6.5c-7.3-3.5-19.6-9.5-27.3-13.3-19.8-9.7-18.4-9.3-20-5.4z"/></svg>